<svg xmlns="http://www.w3.org/2000/svg" width="204.871" height="100" viewBox="0 0 204.871 100"><defs><style>.a{fill:#333;}.b{fill:#fff;}.c{fill:#5cc9e6;}.d{fill:#8ad9ee;}</style></defs><g transform="translate(-11 -12.04)"><path class="a" d="M86.239,84.061v8.711L11,75.7V55.61l41.478,7.851Z" transform="translate(0 -8.877)"/><path class="b" d="M132.433,34.056h-1.975V25.5H127.48V23.768h7.995V25.5h-3.042Zm12.812,0H143.27v-4.4H138.5v4.4h-1.975V23.76H138.5v4.212h4.77V23.76h1.975Zm3.79-5.988h4.8v1.449h-4.8v2.9h5.1v1.632h-7.087V23.76h7.039v1.632h-5.064Z" transform="translate(-23.731 -2.388)"/><path class="c" d="M141.442,48.261v-.422c0-2.588-.741-3.121-4.4-3.121-4.292,0-5.136.534-5.136,3.225,0,1.7.422,2.484,1.561,2.835.605.175.812.175,4.507.39,3.973.247,5.319.494,6.45,1.314,1.457,1,1.951,2.373,1.951,5.391,0,2.938-.422,4.539-1.457,5.566-1.417,1.386-3.225,1.776-8.154,1.776-4.292,0-5.741-.247-7.3-1.171a4.5,4.5,0,0,1-1.879-2.906,17.621,17.621,0,0,1-.287-3.615h4.363c0,1.776.1,2.373.494,2.978.565.956,1.131,1.067,4.825,1.067,2.659,0,3.408-.1,4.077-.637.605-.422.852-1.346.852-2.978,0-1.561-.358-2.3-1.314-2.62-.565-.215-.565-.215-4.507-.462-4.037-.247-4.9-.39-6.1-.956-1.879-.924-2.62-2.62-2.62-5.884,0-2.8.605-4.539,1.879-5.462,1.457-1.1,3.3-1.417,7.692-1.417,4.427,0,6.346.462,7.517,1.776a6.386,6.386,0,0,1,1.346,4.507v.852Zm27.654-6.92V57.083c0,2.906-.358,4.507-1.242,5.669a5.829,5.829,0,0,1-3.082,2.023,22.545,22.545,0,0,1-5.494.422c-3.472,0-5.072-.175-6.45-.78-2.556-1.1-3.368-2.8-3.368-7.095V41.341H154V57.33c0,3.44.709,3.973,5.319,3.973s5.247-.494,5.247-4.149V41.341Zm4.149,0h9.571c2.516,0,2.763,0,3.655.072a5.6,5.6,0,0,1,4.61,2.484c.78,1.314,1.067,2.835,1.067,5.709,0,4.4-1.1,6.561-3.83,7.373-.956.319-.956.319-5.247.39h-5.279v7.62h-4.547Zm9.643,12.127c4.005,0,4.642-.533,4.642-3.934,0-2.62-.287-3.583-1.2-4.077-.637-.287-1.067-.358-2.978-.358h-5.566v8.369Zm16.483-2.238H210.4v3.336H199.37v6.665h11.737V64.99H194.831V41.341H211V45.1H199.362Zm15.073-9.89h11.633c5.709,0,7.66,1.776,7.66,7.055,0,4.714-.812,6-4.252,6.665v.175c2.7.143,4.037,1.736,4.005,4.61v5.136H228.92V60.73c.072-2.588-1.027-3.687-3.543-3.615H219v7.867h-4.539Zm10.885,11.912a4.219,4.219,0,0,0,2.875-.709c.741-.605.924-1.314.924-3.328,0-3.328-.565-3.973-3.472-3.973H218.99v8.01Z" transform="translate(-23.694 -5.931)"/><path class="b" d="M138.3,76.268c5.773.064,7.533,1.975,7.533,7.78v8.241c0,5.462-1.975,7.5-7.533,7.5h-3.113c-5.55,0-7.533-2.038-7.533-7.5V84.04c0-5.8,1.76-7.716,7.533-7.78Zm-3.121,2.309c-3.886,0-4.905.955-4.905,5.462v8.241c0,4.594,1.513,5.152,4.905,5.184h3.113c3.392-.032,4.9-.589,4.9-5.184V84.04c0-4.507-1.019-5.462-4.9-5.462Zm14.532-2.126h11.785c4.475,0,5.526,3.026,5.526,7.007,0,2.07-.032,7.127-5.645,7.127h-9.038V99.6h-2.62Zm2.628,2.317v9.5h6.784c3.488,0,5.271.032,5.271-4.475,0-4.443-.8-5.032-4.037-5.032h-8.018Zm27.471,20.822h-2.62V78.768h-7.5V76.451H187.3v2.317h-7.5Zm13.266,0h-2.62V76.451h2.62Zm14.906-23.323c5.773.064,7.533,1.975,7.533,7.78v8.241c0,5.462-1.975,7.5-7.533,7.5h-3.113c-5.55,0-7.533-2.038-7.533-7.5V84.04c0-5.8,1.76-7.716,7.533-7.779Zm-3.113,2.309c-3.886,0-4.9.955-4.9,5.462v8.241c0,4.594,1.513,5.152,4.9,5.184h3.113c3.392-.032,4.9-.589,4.9-5.184V84.04c0-4.507-1.019-5.462-4.9-5.462Zm34.773,21.013h-4.292L222.358,78.609h-.064V99.591h-2.62V76.451h4.316l12.955,21.133h.064V76.451h2.62v23.14Z" transform="translate(-23.765 -13.084)"/><path class="d" d="M93.955,71.705V20.633a104.459,104.459,0,0,0-82.955,0v34s53.1-6.752,73.925,27.511c0,0-27-31.564-73.925-22.08V85.982c.756-.326,41.032,26.731,41.478,26.046.191.358,41.079-26.213,41.478-26.046v-.358C79.519,46.742,19.186,46.71,19.186,46.71v-19.8c35.012-14.58,66.154,0,66.154,0V62.039a46.09,46.09,0,0,1,8.616,9.667Z" transform="translate(0 -0.001)"/><path class="c" d="M11,54.632s20.583-2.89,41.478,3.886V51.973a129.184,129.184,0,0,0-33.284-5.263v-19.8a84.652,84.652,0,0,1,33.284-6.474V12.04A104.429,104.429,0,0,0,11,20.632Zm0,5.431V85.981c.756-.326,41.032,26.731,41.478,26.046v-50A81.353,81.353,0,0,0,11,60.063Z" transform="translate(0 0)"/></g></svg>