<svg xmlns="http://www.w3.org/2000/svg" width="381.061" height="186" viewBox="0 0 381.061 186"><defs><style>.a{fill:#333;}.b{fill:#5cc9e6;}.c{fill:#8ad9ee;}</style></defs><g transform="translate(-11 -12.04)"><path class="a" d="M150.945,108.528v16.2L11,92.977V55.61l77.148,14.6Z" transform="translate(0 20.96)"/><path class="a" d="M136.692,42.91h-3.673V26.989H127.48V23.775h14.87v3.214h-5.658Zm23.83,0h-3.673V34.735h-8.872V42.91H144.3V23.76h3.673v7.835h8.872V23.76h3.673Zm7.05-11.138H176.5v2.7h-8.931v5.391h9.494V42.9H163.884V23.76h13.093V26.8h-9.42Z" transform="translate(56.033 5.638)"/><path class="b" d="M153.6,54.376v-.785c0-4.813-1.377-5.806-8.175-5.806-7.983,0-9.553.992-9.553,6,0,3.169.785,4.621,2.9,5.273,1.126.326,1.511.326,8.383.726,7.39.459,9.893.918,12,2.444,2.71,1.851,3.629,4.414,3.629,10.027,0,5.465-.785,8.442-2.71,10.353-2.636,2.577-6,3.3-15.166,3.3-7.983,0-10.678-.459-13.581-2.177a8.374,8.374,0,0,1-3.5-5.406A32.78,32.78,0,0,1,127.3,71.6h8.116c0,3.3.193,4.414.918,5.539,1.052,1.777,2.1,1.985,8.975,1.985,4.947,0,6.339-.193,7.583-1.185,1.126-.785,1.585-2.5,1.585-5.539,0-2.9-.666-4.28-2.444-4.873-1.052-.4-1.052-.4-8.383-.859-7.509-.459-9.108-.726-11.345-1.777-3.5-1.718-4.873-4.873-4.873-10.945,0-5.213,1.126-8.442,3.5-10.16,2.71-2.044,6.132-2.636,14.307-2.636,8.235,0,11.8.859,13.981,3.3,1.718,1.911,2.5,4.547,2.5,8.383V54.42Zm51.437-12.87v29.28c0,5.406-.666,8.383-2.31,10.545A10.842,10.842,0,0,1,197,85.093c-1.718.533-5.139.785-10.219.785-6.457,0-9.434-.326-12-1.451-4.754-2.044-6.265-5.213-6.265-13.2V41.505h8.442v29.74c0,6.4,1.318,7.39,9.893,7.39s9.76-.918,9.76-7.716V41.505Zm7.716,0h17.8c4.68,0,5.139,0,6.8.133,3.9.267,6.917,1.911,8.575,4.621,1.451,2.444,1.985,5.273,1.985,10.619,0,8.175-2.044,12.2-7.124,13.715-1.777.592-1.777.592-9.76.726h-9.819V85.493h-8.457Zm17.936,22.556c7.45,0,8.635-.992,8.635-7.316,0-4.873-.533-6.665-2.236-7.583-1.185-.533-1.985-.666-5.539-.666H221.2V64.062ZM261.35,59.9h20.513v6.206H261.35V78.5h21.831v6.991H252.908V41.505h30.065V48.5H261.336Zm28.036-18.395h21.638c10.619,0,14.248,3.3,14.248,13.122,0,8.768-1.511,11.152-7.909,12.4v.326c5.021.267,7.509,3.229,7.45,8.575v9.553h-8.5V77.569c.133-4.813-1.911-6.857-6.591-6.724H297.858V85.478h-8.442Zm20.246,22.157c2.636,0,4.354-.4,5.347-1.318,1.377-1.126,1.718-2.444,1.718-6.191,0-6.191-1.052-7.39-6.457-7.39h-12.4v14.9Z" transform="translate(55.947 14.004)"/><path class="a" d="M147.452,76.275c10.738.118,14.011,3.673,14.011,14.47v15.329c0,10.16-3.673,13.952-14.011,13.952h-5.791c-10.323,0-14.011-3.792-14.011-13.952V90.73c0-10.782,3.273-14.351,14.011-14.47Zm-5.806,4.3c-7.228,0-9.123,1.777-9.123,10.16v15.329c0,8.546,2.814,9.582,9.123,9.642h5.791c6.309-.059,9.123-1.1,9.123-9.642V90.73c0-8.383-1.9-10.16-9.123-10.16Zm27.029-3.954h21.92c8.324,0,10.279,5.628,10.279,13.033,0,3.851-.059,13.255-10.5,13.255h-16.81V119.67H168.69Zm4.887,4.31V98.594h12.619c6.487,0,9.8.059,9.8-8.324,0-8.264-1.5-9.36-7.509-9.36H173.563Zm51.1,38.73h-4.873V80.925H205.835v-4.31H238.6v4.31H224.644Zm24.674,0h-4.873V76.615h4.873Zm27.725-43.38c10.738.118,14.011,3.673,14.011,14.47v15.329c0,10.16-3.673,13.952-14.011,13.952h-5.791c-10.323,0-14.011-3.791-14.011-13.952V90.73c0-10.782,3.273-14.351,14.011-14.47Zm-5.791,4.3c-7.228,0-9.123,1.777-9.123,10.16v15.329c0,8.546,2.814,9.582,9.123,9.642h5.791c6.309-.059,9.123-1.1,9.123-9.642V90.73c0-8.383-1.9-10.16-9.123-10.16Zm64.678,39.085h-7.983L303.807,80.629h-.118v39.026h-4.873V76.615h8.027l24.1,39.307h.118V76.615h4.873v43.039Z" transform="translate(56.115 30.893)"/><path class="c" d="M165.3,123.013V28.018a194.294,194.294,0,0,0-154.3,0V91.259S109.772,78.7,148.5,142.43c0,0-50.223-58.709-137.5-41.07v48.208c1.407-.607,76.319,49.719,77.148,48.445.355.666,76.408-48.756,77.148-48.445V148.9C138.445,76.582,26.225,76.523,26.225,76.523V39.689c65.122-27.118,123.046,0,123.046,0v65.344c9.642,8.575,14.263,15.136,16.025,17.98Z" transform="translate(0 0.002)"/><path class="b" d="M11,91.262s38.285-5.376,77.148,7.228V86.315a240.282,240.282,0,0,0-61.908-9.79V39.691A157.453,157.453,0,0,1,88.148,27.65V12.04A194.237,194.237,0,0,0,11,28.021Zm0,10.1v48.208c1.407-.607,76.319,49.719,77.148,48.445v-93c-20.853-6.68-46.757-9.8-77.148-3.658Z" transform="translate(0)"/></g></svg>